# xmcd
#
# Track frame offsets:
# 150
# 15196
# 30556
# 46950
# 65467
# 87470
# 104944
# 120870
# 140437
# 158285
# 176118
# 193989
#
# Disc length: 2797 seconds
#
#
# Revision: 0
# Processed by: cddbd v1.5.2PL0 Copyright (c) Steve Scherf et al.
# Submitted via: FreeRIP 2.951 
#
DISCID=990aeb0c
DTITLE=Andy Griggs - The Good Life
DYEAR=2008
DGENRE=Country
TTITLE0=Tattoo Rose
TTITLE1=What If It's Me
TTITLE2=It's All About the Money
TTITLE3=Tears and Time
TTITLE4=Long Way Down
TTITLE5=Shadows
TTITLE6=You Can't Drive My Cadillac
TTITLE7=If You Had Called Yesterday
TTITLE8=Long Stretch of Lonesome
TTITLE9=New Orleans Lady
TTITLE10=Burning A Hole in My Head
TTITLE11=Time is a Gypsy
EXTD=
EXTT0=
EXTT1=
EXTT2=
EXTT3=
EXTT4=
EXTT5=
EXTT6=
EXTT7=
EXTT8=
EXTT9=
EXTT10=
EXTT11=
PLAYORDER=
